# xmcd
#
# Track frame offsets:
#	150
#	12866
#	28743
#	51883
#	78551
#	97755
#	116459
#	132028
#	147497
#	167317
#	186157
#	209303
#	225137
#	248585
#
# Disc length: 3562 seconds
#
# Revision: 0
# Processed by: cddbd v1.5.1PL2 Copyright (c) Steve Scherf et al.
# Submitted via: dBpowerAMP V4.0
#
DISCID=a50de80e
DTITLE=Theresa and TC Blue - Rollof the Dice
DYEAR=2005
DGENRE=Blues
TTITLE0=So Special
TTITLE1=Youre Not Fooling Me
TTITLE2=Cool Breeze
TTITLE3=Can You Tell
TTITLE4=Wrong Man Blues
TTITLE5=Thursday Night
TTITLE6=Whats On Your Mind
TTITLE7=Damn That Full Moon
TTITLE8=Hard Hearted Woman
TTITLE9=In The Long Run
TTITLE10=Blues Finds A Way 
TTITLE11=Let Me In
TTITLE12=Roll Of The Dice
TTITLE13=Beware of Mista Live D
EXTD=
EXTT0=
EXTT1=
EXTT2=
EXTT3=
EXTT4=
EXTT5=
EXTT6=
EXTT7=
EXTT8=
EXTT9=
EXTT10=
EXTT11=
EXTT12=
EXTT13=
PLAYORDER=
